<mxfile host="Electron" modified="2025-01-23T09:42:08.441Z" agent="Mozilla/5.0 (Windows NT 10.0; Win64; x64) AppleWebKit/537.36 (KHTML, like Gecko) draw.io/24.1.0 Chrome/120.0.6099.109 Electron/28.1.0 Safari/537.36" etag="Vz4p-zoCb4Aihu4KY2-c" version="24.1.0" type="device" pages="3">
  <diagram id="8j2PTIThE0DS6wNIIHaq" name="fork">
    <mxGraphModel dx="1434" dy="836" grid="1" gridSize="10" guides="1" tooltips="1" connect="1" arrows="1" fold="1" page="1" pageScale="1" pageWidth="827" pageHeight="1169" math="0" shadow="0">
      <root>
        <mxCell id="0" />
        <mxCell id="1" parent="0" />
        <mxCell id="BZPYno0NWWqAYdEW5uS4-3" value="" style="edgeStyle=orthogonalEdgeStyle;rounded=0;orthogonalLoop=1;jettySize=auto;html=1;" edge="1" parent="1" source="BZPYno0NWWqAYdEW5uS4-1" target="BZPYno0NWWqAYdEW5uS4-2">
          <mxGeometry relative="1" as="geometry" />
        </mxCell>
        <mxCell id="BZPYno0NWWqAYdEW5uS4-5" style="edgeStyle=orthogonalEdgeStyle;rounded=0;orthogonalLoop=1;jettySize=auto;html=1;" edge="1" parent="1" source="BZPYno0NWWqAYdEW5uS4-1" target="BZPYno0NWWqAYdEW5uS4-4">
          <mxGeometry relative="1" as="geometry" />
        </mxCell>
        <mxCell id="BZPYno0NWWqAYdEW5uS4-1" value="&lt;font style=&quot;font-size: 30px;&quot;&gt;BE&lt;/font&gt;" style="rounded=1;whiteSpace=wrap;html=1;fillColor=#d5e8d4;strokeColor=#82b366;" vertex="1" parent="1">
          <mxGeometry x="340" y="240" width="120" height="60" as="geometry" />
        </mxCell>
        <mxCell id="BZPYno0NWWqAYdEW5uS4-2" value="parent process" style="rounded=1;whiteSpace=wrap;html=1;fillColor=#d5e8d4;strokeColor=#82b366;fontSize=20;" vertex="1" parent="1">
          <mxGeometry x="210" y="390" width="130" height="60" as="geometry" />
        </mxCell>
        <mxCell id="BZPYno0NWWqAYdEW5uS4-4" value="child process" style="rounded=1;whiteSpace=wrap;html=1;fillColor=#d5e8d4;strokeColor=#82b366;fontSize=20;" vertex="1" parent="1">
          <mxGeometry x="440" y="390" width="120" height="60" as="geometry" />
        </mxCell>
        <mxCell id="BZPYno0NWWqAYdEW5uS4-6" value="fork()" style="text;html=1;align=center;verticalAlign=middle;whiteSpace=wrap;rounded=0;fontSize=18;" vertex="1" parent="1">
          <mxGeometry x="400" y="308" width="60" height="30" as="geometry" />
        </mxCell>
        <mxCell id="BZPYno0NWWqAYdEW5uS4-7" value="启动 python 执行环境： &lt;font color=&quot;#ff0000&quot;&gt;&lt;b&gt;python3 flight_server.py&lt;/b&gt;&lt;/font&gt;" style="text;html=1;align=center;verticalAlign=middle;whiteSpace=wrap;rounded=0;fontSize=16;" vertex="1" parent="1">
          <mxGeometry x="550" y="405" width="210" height="30" as="geometry" />
        </mxCell>
        <mxCell id="BZPYno0NWWqAYdEW5uS4-8" value="执行 python udf 函数表达式" style="text;html=1;align=center;verticalAlign=middle;whiteSpace=wrap;rounded=0;fontSize=16;" vertex="1" parent="1">
          <mxGeometry x="470" y="255" width="200" height="30" as="geometry" />
        </mxCell>
        <mxCell id="BZPYno0NWWqAYdEW5uS4-9" value="PyWorker" style="text;whiteSpace=wrap;align=center;verticalAlign=middle;fillColor=#f8cecc;strokeColor=#b85450;rounded=1;" vertex="1" parent="1">
          <mxGeometry x="315" y="405" width="60" height="30" as="geometry" />
        </mxCell>
        <mxCell id="BZPYno0NWWqAYdEW5uS4-12" value="引用子进程的 pid" style="text;html=1;align=center;verticalAlign=middle;whiteSpace=wrap;rounded=0;" vertex="1" parent="1">
          <mxGeometry x="330" y="382" width="120" height="30" as="geometry" />
        </mxCell>
        <mxCell id="BZPYno0NWWqAYdEW5uS4-15" value="" style="endArrow=classic;html=1;rounded=0;exitX=1;exitY=0.5;exitDx=0;exitDy=0;dashed=1;strokeWidth=1;" edge="1" parent="1" source="BZPYno0NWWqAYdEW5uS4-9">
          <mxGeometry width="50" height="50" relative="1" as="geometry">
            <mxPoint x="380" y="419.5" as="sourcePoint" />
            <mxPoint x="440" y="420" as="targetPoint" />
          </mxGeometry>
        </mxCell>
        <mxCell id="BZPYno0NWWqAYdEW5uS4-16" value="FlightClient" style="text;whiteSpace=wrap;align=center;verticalAlign=middle;fillColor=#f8cecc;strokeColor=#b85450;rounded=1;" vertex="1" parent="1">
          <mxGeometry x="245" y="450" width="70" height="30" as="geometry" />
        </mxCell>
        <mxCell id="BZPYno0NWWqAYdEW5uS4-19" value="Flight RPC&amp;nbsp;" style="text;html=1;align=center;verticalAlign=middle;whiteSpace=wrap;rounded=0;" vertex="1" parent="1">
          <mxGeometry x="323" y="445" width="120" height="30" as="geometry" />
        </mxCell>
        <mxCell id="BZPYno0NWWqAYdEW5uS4-20" value="FlightServerBase" style="text;whiteSpace=wrap;align=center;verticalAlign=middle;fillColor=#f8cecc;strokeColor=#b85450;rounded=1;" vertex="1" parent="1">
          <mxGeometry x="451" y="450" width="100" height="30" as="geometry" />
        </mxCell>
        <mxCell id="BZPYno0NWWqAYdEW5uS4-21" value="" style="endArrow=classic;html=1;rounded=1;dashed=1;strokeWidth=1;startArrow=classic;startFill=1;curved=0;" edge="1" parent="1">
          <mxGeometry width="50" height="50" relative="1" as="geometry">
            <mxPoint x="316" y="470" as="sourcePoint" />
            <mxPoint x="450" y="470" as="targetPoint" />
          </mxGeometry>
        </mxCell>
        <mxCell id="BZPYno0NWWqAYdEW5uS4-22" value="python udf 执行环境的关系图" style="rounded=1;whiteSpace=wrap;html=1;fillColor=#f0a30a;strokeColor=#BD7000;fontColor=#000000;align=center;fontSize=20;" vertex="1" parent="1">
          <mxGeometry x="205" y="140" width="150" height="60" as="geometry" />
        </mxCell>
      </root>
    </mxGraphModel>
  </diagram>
  <diagram id="C5RBs43oDa-KdzZeNtuy" name="ClientTransport">
    <mxGraphModel dx="1434" dy="836" grid="1" gridSize="10" guides="1" tooltips="1" connect="1" arrows="1" fold="1" page="1" pageScale="1" pageWidth="827" pageHeight="1169" math="0" shadow="0">
      <root>
        <mxCell id="WIyWlLk6GJQsqaUBKTNV-0" />
        <mxCell id="WIyWlLk6GJQsqaUBKTNV-1" parent="WIyWlLk6GJQsqaUBKTNV-0" />
        <mxCell id="zkfFHV4jXpPFQw0GAbJ--0" value="ClientTransport" style="swimlane;fontStyle=3;align=center;verticalAlign=top;childLayout=stackLayout;horizontal=1;startSize=40;horizontalStack=0;resizeParent=1;resizeLast=0;collapsible=1;marginBottom=0;rounded=0;shadow=0;strokeWidth=1;fontSize=18;" parent="WIyWlLk6GJQsqaUBKTNV-1" vertex="1">
          <mxGeometry x="220" y="120" width="160" height="90" as="geometry">
            <mxRectangle x="230" y="140" width="160" height="26" as="alternateBounds" />
          </mxGeometry>
        </mxCell>
        <mxCell id="zkfFHV4jXpPFQw0GAbJ--4" value="" style="line;html=1;strokeWidth=1;align=left;verticalAlign=middle;spacingTop=-1;spacingLeft=3;spacingRight=3;rotatable=0;labelPosition=right;points=[];portConstraint=eastwest;" parent="zkfFHV4jXpPFQw0GAbJ--0" vertex="1">
          <mxGeometry y="40" width="160" height="8" as="geometry" />
        </mxCell>
        <mxCell id="zkfFHV4jXpPFQw0GAbJ--5" value="+ &lt;b&gt;&lt;i&gt;Init()&lt;/i&gt;&lt;/b&gt;:&lt;br&gt;+ &lt;b&gt;&lt;i&gt;DoExchange()&lt;/i&gt;&lt;/b&gt;:&amp;nbsp;" style="text;align=left;verticalAlign=middle;spacingLeft=4;spacingRight=4;overflow=hidden;rotatable=0;points=[[0,0.5],[1,0.5]];portConstraint=eastwest;fontStyle=0;html=1;" parent="zkfFHV4jXpPFQw0GAbJ--0" vertex="1">
          <mxGeometry y="48" width="160" height="42" as="geometry" />
        </mxCell>
        <mxCell id="zkfFHV4jXpPFQw0GAbJ--13" value="GrpcClientImpl" style="swimlane;fontStyle=1;align=center;verticalAlign=top;childLayout=stackLayout;horizontal=1;startSize=30;horizontalStack=0;resizeParent=1;resizeLast=0;collapsible=1;marginBottom=0;rounded=0;shadow=0;strokeWidth=1;fontSize=18;" parent="WIyWlLk6GJQsqaUBKTNV-1" vertex="1">
          <mxGeometry x="100" y="290" width="400" height="138" as="geometry">
            <mxRectangle x="340" y="380" width="170" height="26" as="alternateBounds" />
          </mxGeometry>
        </mxCell>
        <mxCell id="7uvoSPPH8UTCueUM53ab-2" value="- &lt;b&gt;stub_&lt;/b&gt;:&amp;nbsp;std::unique_ptr&amp;lt;pb::FlightService::Stub&amp;gt;" style="text;html=1;align=left;verticalAlign=middle;resizable=0;points=[];autosize=1;strokeColor=none;fillColor=none;" vertex="1" parent="zkfFHV4jXpPFQw0GAbJ--13">
          <mxGeometry y="30" width="400" height="30" as="geometry" />
        </mxCell>
        <mxCell id="zkfFHV4jXpPFQw0GAbJ--15" value="" style="line;html=1;strokeWidth=1;align=left;verticalAlign=middle;spacingTop=-1;spacingLeft=3;spacingRight=3;rotatable=0;labelPosition=right;points=[];portConstraint=eastwest;" parent="zkfFHV4jXpPFQw0GAbJ--13" vertex="1">
          <mxGeometry y="60" width="400" height="8" as="geometry" />
        </mxCell>
        <mxCell id="7uvoSPPH8UTCueUM53ab-1" value="+ &lt;b&gt;Make()&lt;/b&gt;:&amp;nbsp;static arrow::Result&amp;lt;std::unique_ptr&amp;lt;internal::ClientTransport&amp;gt;&amp;gt;&lt;div&gt;+ &lt;b&gt;DoExchange()&lt;/b&gt;:&lt;/div&gt;&lt;div&gt;+ &lt;b&gt;Init()&lt;/b&gt;:&lt;/div&gt;&lt;div&gt;+&amp;nbsp;&lt;span style=&quot;background-color: initial;&quot;&gt;&lt;b&gt;InitializeFlightGrpcClient()&lt;/b&gt;:&lt;/span&gt;&lt;/div&gt;" style="text;html=1;align=left;verticalAlign=middle;resizable=0;points=[];autosize=1;strokeColor=none;fillColor=none;" vertex="1" parent="zkfFHV4jXpPFQw0GAbJ--13">
          <mxGeometry y="68" width="400" height="70" as="geometry" />
        </mxCell>
        <mxCell id="zkfFHV4jXpPFQw0GAbJ--16" value="" style="endArrow=block;endSize=10;endFill=0;shadow=0;strokeWidth=1;rounded=0;curved=0;edgeStyle=elbowEdgeStyle;elbow=vertical;" parent="WIyWlLk6GJQsqaUBKTNV-1" source="zkfFHV4jXpPFQw0GAbJ--13" target="zkfFHV4jXpPFQw0GAbJ--0" edge="1">
          <mxGeometry width="160" relative="1" as="geometry">
            <mxPoint x="210" y="373" as="sourcePoint" />
            <mxPoint x="310" y="271" as="targetPoint" />
          </mxGeometry>
        </mxCell>
      </root>
    </mxGraphModel>
  </diagram>
  <diagram id="6CUBI3gRfoQxbe9pon9g" name="TransportRegistry">
    <mxGraphModel dx="1434" dy="836" grid="1" gridSize="10" guides="1" tooltips="1" connect="1" arrows="1" fold="1" page="1" pageScale="1" pageWidth="827" pageHeight="1169" math="0" shadow="0">
      <root>
        <mxCell id="0" />
        <mxCell id="1" parent="0" />
        <mxCell id="ys9bpClrz87a2oTrs81r-1" value="&lt;font style=&quot;font-size: 18px;&quot;&gt;TransportRegistry&lt;/font&gt;" style="swimlane;fontStyle=1;align=center;verticalAlign=middle;childLayout=stackLayout;horizontal=1;startSize=30;horizontalStack=0;resizeParent=1;resizeParentMax=0;resizeLast=0;collapsible=1;marginBottom=0;whiteSpace=wrap;html=1;" vertex="1" parent="1">
          <mxGeometry x="330" y="380" width="370" height="110" as="geometry" />
        </mxCell>
        <mxCell id="ys9bpClrz87a2oTrs81r-2" value="- &lt;i&gt;&lt;b&gt;&lt;font color=&quot;#ff0000&quot;&gt;Impl&lt;/font&gt;&lt;/b&gt;&lt;/i&gt;: class" style="text;strokeColor=none;fillColor=none;align=left;verticalAlign=middle;spacingLeft=4;spacingRight=4;overflow=hidden;rotatable=0;points=[[0,0.5],[1,0.5]];portConstraint=eastwest;whiteSpace=wrap;html=1;" vertex="1" parent="ys9bpClrz87a2oTrs81r-1">
          <mxGeometry y="30" width="370" height="26" as="geometry" />
        </mxCell>
        <mxCell id="ys9bpClrz87a2oTrs81r-3" value="" style="line;strokeWidth=1;fillColor=none;align=left;verticalAlign=middle;spacingTop=-1;spacingLeft=3;spacingRight=3;rotatable=0;labelPosition=right;points=[];portConstraint=eastwest;strokeColor=inherit;" vertex="1" parent="ys9bpClrz87a2oTrs81r-1">
          <mxGeometry y="56" width="370" height="8" as="geometry" />
        </mxCell>
        <mxCell id="ys9bpClrz87a2oTrs81r-4" value="+ &lt;b&gt;MakeClient&lt;/b&gt;(const std::string&amp;amp;): std::unique_ptr&amp;lt;ClientTransport&amp;gt;&lt;div&gt;+ &lt;b&gt;RegisterClient&lt;/b&gt;(const std::string&amp;amp;, ClientFactory): Status&lt;/div&gt;" style="text;strokeColor=none;fillColor=none;align=left;verticalAlign=middle;spacingLeft=4;spacingRight=4;overflow=hidden;rotatable=0;points=[[0,0.5],[1,0.5]];portConstraint=eastwest;whiteSpace=wrap;html=1;" vertex="1" parent="ys9bpClrz87a2oTrs81r-1">
          <mxGeometry y="64" width="370" height="46" as="geometry" />
        </mxCell>
        <mxCell id="ys9bpClrz87a2oTrs81r-5" value="私有嵌套类，用于实现接口类中定义的方法，是一种&amp;nbsp;&lt;font color=&quot;#ff0000&quot;&gt;&lt;b&gt;Pimpl&amp;nbsp;&lt;/b&gt;&lt;/font&gt;机制。" style="shape=note2;boundedLbl=1;whiteSpace=wrap;html=1;size=9;verticalAlign=middle;align=left;spacing=1;" vertex="1" parent="1">
          <mxGeometry x="150" y="390" width="140" height="60" as="geometry" />
        </mxCell>
        <mxCell id="ys9bpClrz87a2oTrs81r-6" value="" style="endArrow=classic;html=1;rounded=0;" edge="1" parent="1" target="ys9bpClrz87a2oTrs81r-2">
          <mxGeometry width="50" height="50" relative="1" as="geometry">
            <mxPoint x="290" y="423" as="sourcePoint" />
            <mxPoint x="330" y="423" as="targetPoint" />
          </mxGeometry>
        </mxCell>
      </root>
    </mxGraphModel>
  </diagram>
</mxfile>
